HIERARCHY
ROOT Hips
{
	OFFSET 0.000000 97.167313 0.000000
	CHANNELS 6 Xposition Yposition Zposition Xrotation Yrotation Zrotation
	JOINT Spine
	{
		OFFSET 0.000000 13.784798 0.064400
		CHANNELS 3 Xrotation Yrotation Zrotation
		JOINT Spine1
		{
			OFFSET 0.000000 12.037903 0.404700
			CHANNELS 3 Xrotation Yrotation Zrotation
			JOINT Spine2
			{
				OFFSET 0.000000 17.795601 0.420200
				CHANNELS 3 Xrotation Yrotation Zrotation
				JOINT Neck
				{
					OFFSET 0.000000 39.131302 11.954600
					CHANNELS 3 Xrotation Yrotation Zrotation
					JOINT Head
					{
						OFFSET 0.000000 14.456192 15.627699
						CHANNELS 3 Xrotation Yrotation Zrotation
						JOINT HeadTop_End
						{
							OFFSET 0.000000 15.703506 7.603401
							CHANNELS 3 Xrotation Yrotation Zrotation
							End Site
							{
								OFFSET 0.000000 17.447403 0.000000
							}
						}
					}
				}
				JOINT LeftShoulder
				{
					OFFSET 17.399500 24.608795 1.168800
					CHANNELS 3 Xrotation Yrotation Zrotation
					JOINT LeftArm
					{
						OFFSET 18.980635 5.765305 1.818600
						CHANNELS 3 Xrotation Yrotation Zrotation
						JOINT LeftForeArm
						{
							OFFSET 49.290169 0.000000 0.000000
							CHANNELS 3 Xrotation Yrotation Zrotation
							JOINT LeftHand
							{
								OFFSET 31.562012 0.000000 0.000000
								CHANNELS 3 Xrotation Yrotation Zrotation
								JOINT LeftHandThumb1
								{
									OFFSET 6.133995 -4.388519 7.076070
									CHANNELS 3 Xrotation Yrotation Zrotation
									JOINT LeftHandThumb2
									{
										OFFSET 6.037666 -3.485840 3.485847
										CHANNELS 3 Xrotation Yrotation Zrotation
										JOINT LeftHandThumb3
										{
											OFFSET 6.496506 -3.750763 3.750761
											CHANNELS 3 Xrotation Yrotation Zrotation
											JOINT LeftHandThumb4
											{
												OFFSET 5.616882 -3.242905 3.242910
												CHANNELS 3 Xrotation Yrotation Zrotation
												End Site
												{
													OFFSET -1.254608 7.132141 0.375429
												}
											}
										}
									}
								}
								JOINT LeftHandPinky1
								{
									OFFSET 18.920792 -0.453171 -11.426712
									CHANNELS 3 Xrotation Yrotation Zrotation
									JOINT LeftHandPinky2
									{
										OFFSET 4.919586 0.000000 0.000000
										CHANNELS 3 Xrotation Yrotation Zrotation
										JOINT LeftHandPinky3
										{
											OFFSET 5.233047 0.000000 0.000000
											CHANNELS 3 Xrotation Yrotation Zrotation
											JOINT LeftHandPinky4
											{
												OFFSET 5.571716 0.000000 0.000000
												CHANNELS 3 Xrotation Yrotation Zrotation
												End Site
												{
													OFFSET -3.459808 4.342407 -0.466164
												}
											}
										}
									}
								}
								JOINT LeftHandRing1
								{
									OFFSET 22.726120 -0.094986 -6.500475
									CHANNELS 3 Xrotation Yrotation Zrotation
									JOINT LeftHandRing2
									{
										OFFSET 6.408615 0.000000 0.000000
										CHANNELS 3 Xrotation Yrotation Zrotation
										JOINT LeftHandRing3
										{
											OFFSET 6.150223 0.000000 0.000000
											CHANNELS 3 Xrotation Yrotation Zrotation
											JOINT LeftHandRing4
											{
												OFFSET 6.145386 0.000000 0.000000
												CHANNELS 3 Xrotation Yrotation Zrotation
												End Site
												{
													OFFSET -3.671402 4.923981 -0.202372
												}
											}
										}
									}
								}
								JOINT LeftHandMiddle1
								{
									OFFSET 23.373947 0.000000 0.000001
									CHANNELS 3 Xrotation Yrotation Zrotation
									JOINT LeftHandMiddle2
									{
										OFFSET 6.996567 0.000000 0.000000
										CHANNELS 3 Xrotation Yrotation Zrotation
										JOINT LeftHandMiddle3
										{
											OFFSET 7.015945 0.000000 0.000000
											CHANNELS 3 Xrotation Yrotation Zrotation
											JOINT LeftHandMiddle4
											{
												OFFSET 7.721573 0.000000 0.000000
												CHANNELS 3 Xrotation Yrotation Zrotation
												End Site
												{
													OFFSET -4.651108 6.158463 0.251582
												}
											}
										}
									}
								}
								JOINT LeftHandIndex1
								{
									OFFSET 21.310577 -0.490082 6.209344
									CHANNELS 3 Xrotation Yrotation Zrotation
									JOINT LeftHandIndex2
									{
										OFFSET 7.536453 0.000000 0.000000
										CHANNELS 3 Xrotation Yrotation Zrotation
										JOINT LeftHandIndex3
										{
											OFFSET 7.512344 0.000000 0.000000
											CHANNELS 3 Xrotation Yrotation Zrotation
											JOINT LeftHandIndex4
											{
												OFFSET 10.212402 0.000000 0.000001
												CHANNELS 3 Xrotation Yrotation Zrotation
												End Site
												{
													OFFSET -5.180801 8.690506 1.388433
												}
											}
										}
									}
								}
							}
						}
					}
				}
				JOINT RightShoulder
				{
					OFFSET -17.399500 24.608795 1.168800
					CHANNELS 3 Xrotation Yrotation Zrotation
					JOINT RightArm
					{
						OFFSET -18.980635 5.765305 1.818600
						CHANNELS 3 Xrotation Yrotation Zrotation
						JOINT RightForeArm
						{
							OFFSET -49.290169 0.000000 0.000000
							CHANNELS 3 Xrotation Yrotation Zrotation
							JOINT RightHand
							{
								OFFSET -31.562012 0.000000 0.000000
								CHANNELS 3 Xrotation Yrotation Zrotation
								JOINT RightHandThumb1
								{
									OFFSET -6.133995 -4.388519 7.076070
									CHANNELS 3 Xrotation Yrotation Zrotation
									JOINT RightHandThumb2
									{
										OFFSET -6.037666 -3.485840 3.485847
										CHANNELS 3 Xrotation Yrotation Zrotation
										JOINT RightHandThumb3
										{
											OFFSET -6.496506 -3.750763 3.750761
											CHANNELS 3 Xrotation Yrotation Zrotation
											JOINT RightHandThumb4
											{
												OFFSET -5.616882 -3.242905 3.242910
												CHANNELS 3 Xrotation Yrotation Zrotation
												End Site
												{
													OFFSET 1.254608 7.132141 0.375429
												}
											}
										}
									}
								}
								JOINT RightHandIndex1
								{
									OFFSET -21.310577 -0.490082 6.209344
									CHANNELS 3 Xrotation Yrotation Zrotation
									JOINT RightHandIndex2
									{
										OFFSET -7.536453 0.000000 0.000000
										CHANNELS 3 Xrotation Yrotation Zrotation
										JOINT RightHandIndex3
										{
											OFFSET -7.512344 0.000000 0.000000
											CHANNELS 3 Xrotation Yrotation Zrotation
											JOINT RightHandIndex4
											{
												OFFSET -10.212402 0.000000 0.000001
												CHANNELS 3 Xrotation Yrotation Zrotation
												End Site
												{
													OFFSET 5.180801 8.690506 1.388433
												}
											}
										}
									}
								}
								JOINT RightHandMiddle1
								{
									OFFSET -23.373947 0.000000 0.000001
									CHANNELS 3 Xrotation Yrotation Zrotation
									JOINT RightHandMiddle2
									{
										OFFSET -6.996567 0.000000 0.000000
										CHANNELS 3 Xrotation Yrotation Zrotation
										JOINT RightHandMiddle3
										{
											OFFSET -7.015945 0.000000 0.000000
											CHANNELS 3 Xrotation Yrotation Zrotation
											JOINT RightHandMiddle4
											{
												OFFSET -7.721573 0.000000 0.000000
												CHANNELS 3 Xrotation Yrotation Zrotation
												End Site
												{
													OFFSET 4.651108 6.158463 0.251582
												}
											}
										}
									}
								}
								JOINT RightHandRing1
								{
									OFFSET -22.726120 -0.094986 -6.500475
									CHANNELS 3 Xrotation Yrotation Zrotation
									JOINT RightHandRing2
									{
										OFFSET -6.408615 0.000000 0.000000
										CHANNELS 3 Xrotation Yrotation Zrotation
										JOINT RightHandRing3
										{
											OFFSET -6.150223 0.000000 0.000000
											CHANNELS 3 Xrotation Yrotation Zrotation
											JOINT RightHandRing4
											{
												OFFSET -6.145386 0.000000 0.000000
												CHANNELS 3 Xrotation Yrotation Zrotation
												End Site
												{
													OFFSET 3.671402 4.923981 -0.202372
												}
											}
										}
									}
								}
								JOINT RightHandPinky1
								{
									OFFSET -18.920792 -0.453171 -11.426712
									CHANNELS 3 Xrotation Yrotation Zrotation
									JOINT RightHandPinky2
									{
										OFFSET -4.919586 0.000000 0.000000
										CHANNELS 3 Xrotation Yrotation Zrotation
										JOINT RightHandPinky3
										{
											OFFSET -5.233047 0.000000 0.000000
											CHANNELS 3 Xrotation Yrotation Zrotation
											JOINT RightHandPinky4
											{
												OFFSET -5.571716 0.000000 0.000000
												CHANNELS 3 Xrotation Yrotation Zrotation
												End Site
												{
													OFFSET 3.459808 4.342407 -0.466164
												}
											}
										}
									}
								}
							}
						}
					}
				}
			}
		}
	}
	JOINT LeftUpLeg
	{
		OFFSET 19.899099 -7.885101 -3.429500
		CHANNELS 3 Xrotation Yrotation Zrotation
		JOINT LeftLeg
		{
			OFFSET 1.745560 -36.997807 10.304700
			CHANNELS 3 Xrotation Yrotation Zrotation
			JOINT LeftFoot
			{
				OFFSET -1.745558 -29.803308 -13.615400
				CHANNELS 3 Xrotation Yrotation Zrotation
				JOINT LeftToeBase
				{
					OFFSET 1.181900 -18.539904 15.226099
					CHANNELS 3 Xrotation Yrotation Zrotation
					JOINT LeftToe_End
					{
						OFFSET -0.863701 1.402801 16.534700
						CHANNELS 3 Xrotation Yrotation Zrotation
						End Site
						{
							OFFSET 0.000000 16.616566 0.000000
						}
					}
				}
			}
		}
	}
	JOINT RightUpLeg
	{
		OFFSET -19.899099 -7.885101 -3.429500
		CHANNELS 3 Xrotation Yrotation Zrotation
		JOINT RightLeg
		{
			OFFSET -1.745560 -36.997807 10.304700
			CHANNELS 3 Xrotation Yrotation Zrotation
			JOINT RightFoot
			{
				OFFSET 1.745558 -29.803308 -13.615400
				CHANNELS 3 Xrotation Yrotation Zrotation
				JOINT RightToeBase
				{
					OFFSET -1.181900 -18.539904 15.226099
					CHANNELS 3 Xrotation Yrotation Zrotation
					JOINT RightToe_End
					{
						OFFSET 0.863701 1.402801 16.534700
						CHANNELS 3 Xrotation Yrotation Zrotation
						End Site
						{
							OFFSET 0.000000 16.616566 0.000000
						}
					}
				}
			}
		}
	}
}
MOTION
Frames: 6
Frame Time: 0.033333
1.366768 27.605469 -15.978645 54.046788 1.260103 -2.160615 27.887235 6.586862 -1.925032 5.549187 1.219342 1.181962 5.560494 1.454607 1.214950 4.606354 -0.830573 -3.363788 -2.850504 -13.855067 -9.965498 -0.000000 0.000000 -0.000001 0.913814 -18.773837 -0.965504 -64.128318 -56.089561 -63.325539 -0.000009 -13.107155 0.000013 20.707573 9.018443 82.887959 -20.080384 -24.741488 19.394674 22.834735 38.255855 -3.683028 -10.039006 25.676503 9.360620 -0.000002 -0.000004 -0.000002 -2.417240 21.798424 -7.849280 0.000009 0.009603 -0.093830 0.115713 -1.159800 11.394203 -0.000000 0.000003 -0.000000 0.064219 2.303556 0.308472 0.064120 0.865312 -8.475606 0.195086 -1.500743 14.812515 0.000001 0.000000 0.000003 -0.192389 -4.908559 -2.378521 0.000063 0.027718 -0.270499 0.108429 -1.123069 11.028734 0.000000 -0.000001 0.000004 1.154149 -12.095145 -2.099781 0.001515 0.133343 -1.301397 0.025850 -0.550334 5.378420 -0.000001 0.000002 -0.000001 2.991682 12.536342 16.656174 -37.715748 32.094984 46.350883 0.000047 70.996524 -0.000054 72.274692 -20.928588 -57.247459 -13.932380 31.245069 41.564389 43.244711 -57.892164 36.054321 3.730280 -17.399214 -9.550598 0.000001 -0.000001 -0.000001 0.074951 0.721257 84.085373 0.886965 -2.735996 35.917998 0.158040 1.204144 -14.952674 -0.000002 -0.000001 -0.000002 -2.059778 -6.561701 86.671426 1.016961 -2.906781 38.558522 0.156514 1.198493 -14.880991 0.000001 0.000000 -0.000004 3.645035 -6.814858 79.565973 1.193148 -3.114730 41.911871 0.535263 -2.169603 27.714058 0.000000 0.000001 -0.000005 3.186579 -17.307091 85.825527 0.555797 -2.208234 28.251892 0.510399 -2.121652 27.050109 0.000001 0.000001 0.000002 -43.701251 -33.115486 49.115163 103.892191 -19.759201 -26.794926 22.827588 -7.948923 -16.114211 15.394960 11.560897 50.455837 -0.000002 -0.000000 -0.000000 -56.504936 8.658880 -26.711868 107.130534 16.661454 11.248365 13.619332 1.578142 11.341981 -5.113831 -26.740698 -56.126663 -0.000007 -0.000003 -0.000003 
1.394304 27.628250 -15.906387 54.246571 1.362015 -2.180774 27.843533 6.795975 -1.913310 5.539309 1.267071 1.202347 5.551090 1.504158 1.284332 4.656714 -0.832603 -3.447736 -2.752977 -14.018991 -10.061130 -0.000000 -0.000001 0.000001 0.845042 -18.835597 -1.112053 -64.345327 -56.632278 -63.645601 -0.000002 -13.023432 0.000001 20.450208 9.008128 83.035778 -20.080374 -24.741372 19.394484 22.834897 38.255934 -3.682999 -10.039074 25.675752 9.360842 -0.000000 -0.000002 -0.000001 -2.417201 21.798115 -7.849759 0.000004 0.009713 -0.094714 0.115699 -1.159744 11.393586 -0.000000 -0.000001 -0.000002 0.064213 2.303680 0.308524 0.064119 0.865311 -8.475505 0.195064 -1.500629 14.811404 -0.000000 -0.000001 0.000003 -0.192413 -4.908833 -2.378592 0.000073 0.027742 -0.270808 0.108415 -1.123002 11.028114 0.000000 0.000000 0.000004 1.152284 -12.095748 -2.100134 0.001512 0.133429 -1.302049 0.025849 -0.550363 5.378572 0.000001 0.000000 -0.000002 2.924798 13.326122 16.369580 -38.303025 32.102200 45.303839 0.000005 69.547233 0.000020 72.954562 -21.330061 -57.480837 -14.543703 30.651225 41.738104 40.934628 -58.880144 34.258825 2.978701 -16.914144 -10.682745 0.000003 -0.000001 0.000002 -0.486190 -0.338727 84.835997 0.839923 -2.669923 34.920797 0.158040 1.204119 -14.952706 -0.000003 -0.000001 0.000001 -2.886853 -6.508092 86.603199 0.992665 -2.876117 38.077041 0.145630 1.156697 -14.350407 0.000000 -0.000000 -0.000009 2.876097 -6.664083 78.986691 1.164125 -3.082128 41.375042 0.527222 -2.154262 27.500930 -0.000001 0.000000 -0.000005 2.994859 -16.255755 84.601032 0.538825 -2.176354 27.807944 0.510285 -2.121422 27.046829 -0.000001 -0.000004 0.000002 -44.128305 -33.156808 48.765430 103.899103 -19.533260 -26.673982 22.928207 -7.945159 -16.149694 15.471470 11.501963 50.373694 -0.000000 0.000000 -0.000000 -56.713461 8.197861 -26.604403 107.125992 16.425116 10.909684 13.548881 1.549253 11.371780 -5.114402 -26.741990 -56.129170 -0.000002 -0.000003 0.000001 
1.423124 27.654160 -15.834129 54.431185 1.448813 -2.201151 27.792105 6.960316 -1.892514 5.525343 1.304018 1.221832 5.537274 1.542812 1.352836 4.716073 -0.829662 -3.526699 -2.624108 -14.100183 -10.131442 -0.000000 0.000000 0.000000 0.781785 -18.859428 -1.259511 -64.531354 -57.164613 -63.937626 0.000011 -12.884039 0.000026 20.161650 8.964518 83.196198 -20.080348 -24.741337 19.394271 22.835081 38.256040 -3.682969 -10.039141 25.675041 9.361064 0.000001 -0.000004 -0.000002 -2.417156 21.797787 -7.850225 0.000007 0.009807 -0.095559 0.115692 -1.159696 11.392990 -0.000002 -0.000002 -0.000001 0.064216 2.303771 0.308573 0.064121 0.865317 -8.475397 0.195041 -1.500539 14.810367 -0.000001 -0.000001 0.000007 -0.192417 -4.909151 -2.378655 0.000061 0.027787 -0.271102 0.108403 -1.122958 11.027527 0.000001 -0.000001 0.000002 1.150421 -12.096357 -2.100498 0.001517 0.133481 -1.302668 0.025859 -0.550398 5.378700 0.000000 0.000000 -0.000002 2.777029 14.316136 16.422631 -38.657966 32.423116 43.940355 0.000052 67.860504 -0.000044 74.185772 -22.321524 -57.505610 -14.949273 29.139940 41.206296 36.949916 -59.009310 30.865434 2.560834 -17.044860 -11.828638 0.000002 -0.000000 -0.000001 -1.029530 -1.236086 85.252003 0.787837 -2.593800 33.786381 0.158023 1.204129 -14.952684 -0.000001 -0.000002 0.000001 -3.929248 -6.341733 85.859665 0.953216 -2.825074 37.283602 0.125049 1.073122 -13.293655 0.000000 -0.000001 -0.000006 1.767892 -6.406309 77.780480 1.086136 -2.991405 39.903085 0.513608 -2.127876 27.136191 0.000000 -0.000000 -0.000003 2.429780 -15.217515 82.317337 0.505438 -2.111933 26.916116 0.504124 -2.109320 26.880025 -0.000001 0.000000 0.000001 -44.490401 -33.199729 48.463799 103.896057 -19.318975 -26.567363 23.018294 -7.960549 -16.193593 15.540185 11.435828 50.293217 -0.000002 -0.000002 0.000001 -56.940381 7.723715 -26.477828 107.127228 16.169809 10.539521 13.492222 1.522102 11.405975 -5.120392 -26.743076 -56.147526 -0.000003 -0.000001 -0.000001 
1.448459 27.672104 -15.783516 54.552663 1.516299 -2.229720 27.745758 7.022758 -1.849162 5.511937 1.317218 1.234049 5.523527 1.558000 1.409565 4.755807 -0.837930 -3.563899 -2.491946 -14.125834 -10.155894 -0.000000 -0.000000 0.000001 0.745041 -18.812127 -1.374747 -64.710455 -57.473023 -64.200759 0.000010 -12.769772 0.000016 20.007986 8.924701 83.311308 -20.080324 -24.741194 19.394093 22.835266 38.256115 -3.682948 -10.039203 25.674326 9.361280 -0.000002 0.000001 -0.000001 -2.417124 21.797517 -7.850666 0.000012 0.009861 -0.096368 0.115685 -1.159633 11.392424 0.000002 0.000001 0.000001 0.064211 2.303911 0.308623 0.064113 0.865284 -8.475290 0.195006 -1.500429 14.809366 -0.000001 0.000001 0.000005 -0.192437 -4.909382 -2.378718 0.000061 0.027819 -0.271393 0.108395 -1.122894 11.026949 0.000001 0.000000 0.000004 1.148557 -12.096874 -2.100860 0.001517 0.133534 -1.303267 0.025845 -0.550384 5.378840 -0.000001 0.000001 0.000001 2.662788 14.982165 16.663310 -38.952675 33.024952 42.691087 0.000021 66.733031 -0.000003 74.787757 -23.121758 -56.594585 -14.986231 25.718941 39.619342 30.545241 -57.915995 25.760718 2.548657 -18.053361 -13.481953 -0.000001 0.000000 0.000002 -2.398365 -0.568958 84.401727 0.740621 -2.521895 32.728737 0.123715 1.067338 -13.220612 -0.000002 -0.000001 0.000001 -5.392553 -5.937280 84.088207 0.888050 -2.737476 35.940961 0.090584 0.915033 -11.306837 0.000001 -0.000000 -0.000009 -0.166397 -5.811621 75.252094 0.926179 -2.789257 36.731473 0.493222 -2.087675 26.582041 -0.000000 0.000001 -0.000005 0.553261 -13.981469 78.001580 0.443606 -1.985499 25.186394 0.472098 -2.044923 25.996304 -0.000000 -0.000000 0.000002 -44.750334 -33.237087 48.246715 103.909048 -19.163977 -26.487233 23.081330 -7.967247 -16.210050 15.614012 11.378736 50.214352 -0.000003 -0.000002 0.000001 -57.213004 7.123895 -26.281526 107.204341 15.829103 10.032294 13.444500 1.498698 11.425913 -5.120460 -26.745322 -56.150596 -0.000003 -0.000001 0.000000 
1.471395 27.683624 -15.746513 54.639130 1.573571 -2.265872 27.695321 7.021427 -1.791184 5.498234 1.316135 1.241260 5.509256 1.558814 1.458371 4.782834 -0.851940 -3.573726 -2.363345 -14.124688 -10.153285 -0.000001 -0.000000 -0.000001 0.726279 -18.723459 -1.466900 -64.901373 -57.628710 -64.463100 0.000003 -12.662166 0.000002 19.955434 8.885048 83.396337 -20.080305 -24.741146 19.393888 22.835462 38.256221 -3.682930 -10.039266 25.673662 9.361480 -0.000001 -0.000003 -0.000001 -2.417082 21.797207 -7.851098 -0.000002 0.009965 -0.097139 0.115679 -1.159588 11.391905 -0.000001 0.000000 -0.000006 0.064217 2.303998 0.308673 0.064112 0.865285 -8.475193 0.194984 -1.500340 14.808420 -0.000000 0.000001 0.000003 -0.192447 -4.909635 -2.378777 0.000061 0.027844 -0.271664 0.108382 -1.122843 11.026412 0.000001 0.000000 0.000001 1.146699 -12.097430 -2.101226 0.001514 0.133605 -1.303840 0.025859 -0.550415 5.378975 -0.000000 0.000001 0.000002 2.620898 15.221116 16.763364 -38.960246 33.420713 41.758103 0.000038 66.860893 -0.000033 75.179933 -22.022582 -57.018067 -14.927047 19.635170 36.861448 21.229398 -54.547431 19.147698 3.029612 -20.345001 -15.811114 0.000001 0.000000 -0.000003 -5.437833 3.269116 80.976039 0.704801 -2.465274 31.904971 0.068268 0.795310 -9.811273 -0.000001 0.000000 -0.000001 -7.458345 -5.118104 81.141145 0.791558 -2.599337 33.868572 0.045952 0.653335 -8.046899 -0.000000 0.000001 -0.000004 -3.539674 -4.413938 71.372041 0.672612 -2.412842 31.148545 0.463762 -2.027771 25.761870 -0.000001 0.000000 -0.000005 -3.435140 -11.873311 71.350478 0.349259 -1.771158 22.308366 0.390872 -1.869309 23.618282 0.000000 0.000002 0.000004 -44.943307 -33.284311 48.101549 103.929026 -19.053250 -26.430085 23.134814 -7.975573 -16.209294 15.687184 11.324168 50.138008 -0.000001 -0.000002 -0.000000 -57.446173 6.567390 -26.098867 107.285190 15.520282 9.567924 13.401945 1.479811 11.437583 -5.116236 -26.746053 -56.138892 -0.000001 -0.000002 -0.000002 
1.492237 27.691559 -15.717278 54.706567 1.625003 -2.305658 27.644146 6.987729 -1.724707 5.484464 1.308119 1.245917 5.494845 1.554514 1.503188 4.802262 -0.869015 -3.569830 -2.239356 -14.111371 -10.138875 -0.000000 -0.000000 -0.000000 0.716684 -18.613331 -1.546803 -65.099619 -57.704068 -64.725523 0.000002 -12.558056 -0.000021 19.954862 8.844462 83.465800 -20.080288 -24.741052 19.393718 22.835677 38.256296 -3.682917 -10.039318 25.673032 9.361682 0.000001 0.000002 -0.000001 -2.417060 21.796942 -7.851506 0.000010 0.010034 -0.097850 0.115658 -1.159531 11.391391 -0.000001 0.000001 -0.000000 0.064218 2.304110 0.308724 0.064112 0.865282 -8.475083 0.194960 -1.500248 14.807538 -0.000000 0.000001 0.000007 -0.192467 -4.909833 -2.378825 0.000075 0.027851 -0.271928 0.108355 -1.122778 11.025880 0.000000 -0.000002 0.000004 1.144839 -12.097920 -2.101582 0.001518 0.133650 -1.304381 0.025845 -0.550406 5.379105 -0.000001 0.000001 0.000001 2.659615 15.072368 16.814271 -38.806686 33.368831 41.075006 0.000056 68.291394 -0.000075 77.555371 -22.473274 -54.822500 -15.418281 12.947890 33.319842 12.422249 -48.844421 13.519058 3.991520 -23.710754 -17.455127 -0.000003 0.000001 -0.000001 -8.454211 8.686212 75.605160 0.663319 -2.397422 30.926922 0.024419 0.476813 -5.863374 -0.000003 0.000001 -0.000001 -9.628603 -3.873655 77.481406 0.685368 -2.433834 31.450532 0.013279 0.351674 -4.321096 -0.000001 0.000002 -0.000001 -7.097700 -2.377935 67.345173 0.420730 -1.936136 24.517637 0.426832 -1.949455 24.697484 -0.000003 0.000001 -0.000003 -7.897683 -8.917788 64.414831 0.254219 -1.519110 18.998852 0.290854 -1.621627 20.335953 -0.000000 -0.000001 0.000004 -45.097711 -33.337115 47.997771 103.951477 -18.967939 -26.386863 23.180824 -7.986235 -16.199598 15.762653 11.275485 50.063538 -0.000000 0.000000 0.000001 -57.628410 6.090677 -25.948790 107.349844 15.263419 9.182318 13.362148 1.464320 11.444732 -5.114400 -26.744728 -56.129839 -0.000002 0.000000 0.000002 
